<svg width="16" height="16" viewBox="0 0 16 16" fill="none" xmlns="http://www.w3.org/2000/svg">
<g clip-path="url(#clip0_14_8)">
<path d="M8.00002 15.3333C12.0434 15.3333 15.3334 12.0437 15.3334 8C15.3334 7.30206 15.2359 6.61426 15.043 5.95556C14.948 5.63165 14.6097 5.4456 14.2849 5.54064C13.9607 5.63538 13.7753 5.9748 13.87 6.29871C14.0298 6.84597 14.1111 7.41858 14.1111 8C14.1111 11.3696 11.3696 14.1111 8.00002 14.1111C4.6304 14.1111 1.88891 11.3696 1.88891 8C1.88891 4.63039 4.6304 1.88889 8.00002 1.88889C9.22463 1.88889 10.4028 2.24697 11.4072 2.92417C11.6868 3.11291 12.067 3.03876 12.2554 2.75916C12.444 2.47927 12.3704 2.09941 12.0906 1.91083C10.8836 1.09696 9.46916 0.666672 8.00002 0.666672C3.95663 0.666672 0.666687 3.95632 0.666687 8C0.666687 12.0437 3.95663 15.3333 8.00002 15.3333Z" fill="#6F2FF9"/>
<path d="M14.8619 1.52853L7.9999 8.39018L5.80459 6.1952C5.54417 5.93494 5.12229 5.93494 4.86188 6.1952C4.60162 6.45561 4.60162 6.87749 4.86188 7.1379L7.52854 9.80457C7.65891 9.93494 7.82916 9.99988 7.9999 9.99988C8.17063 9.99988 8.34088 9.93494 8.47125 9.80457L15.8046 2.47124C16.0648 2.21082 16.0648 1.78895 15.8046 1.52853C15.5442 1.26827 15.1223 1.26827 14.8619 1.52853Z" fill="#6F2FF9"/>
</g>
<defs>
<clipPath id="clip0_14_8">
<rect width="16" height="16" fill="white"/>
</clipPath>
</defs>
</svg>
