<svg width="16" height="16" viewBox="0 0 16 16" fill="none" xmlns="http://www.w3.org/2000/svg">
<path fill-rule="evenodd" clip-rule="evenodd" d="M5.66665 1.9479C5.11436 1.9479 4.66665 2.39561 4.66665 2.9479V13.0521C4.66665 13.6043 5.11436 14.0521 5.66665 14.0521H10.3333C10.8856 14.0521 11.3333 13.6043 11.3333 13.0521V2.9479C11.3333 2.39561 10.8856 1.9479 10.3333 1.9479H10.2777L10.1153 2.33753C10.0118 2.58594 9.7691 2.74775 9.49998 2.74775H6.49998C6.23086 2.74775 5.98814 2.58594 5.88461 2.33753L5.72223 1.9479H5.66665ZM3.33331 2.9479C3.33331 1.65923 4.37798 0.614563 5.66665 0.614563H10.3333C11.622 0.614563 12.6666 1.65923 12.6666 2.9479V13.0521C12.6666 14.3407 11.622 15.3854 10.3333 15.3854H5.66665C4.37798 15.3854 3.33331 14.3407 3.33331 13.0521V2.9479Z" fill="gray"/>
</svg>
